<?xml version="1.0" standalone="no"?>
<!DOCTYPE svg PUBLIC "-//W3C//DTD SVG 20010904//EN"
 "http://www.w3.org/TR/2001/REC-SVG-20010904/DTD/svg10.dtd">
<svg version="1.0" xmlns="http://www.w3.org/2000/svg"
 width="768.000000pt" height="1024.000000pt" viewBox="0 0 768.000000 1024.000000"
 preserveAspectRatio="xMidYMid meet">

<g transform="translate(0.000000,1024.000000) scale(0.100000,-0.100000)"
fill="#000000" stroke="none">
<path d="M7624 7107 c-23 -12 -63 -41 -90 -64 -27 -24 -52 -43 -56 -43 -3 0
-9 -9 -13 -19 -3 -11 -15 -23 -26 -26 -10 -4 -19 -12 -19 -20 0 -12 -39 -32
-48 -26 -2 2 -14 -5 -28 -14 -14 -9 -32 -14 -40 -11 -8 3 -13 2 -10 -2 3 -5
-10 -15 -27 -23 -75 -36 -105 -49 -147 -63 -25 -8 -83 -31 -130 -51 -47 -20
-95 -37 -107 -37 -13 0 -21 -3 -19 -7 3 -4 -10 -13 -27 -20 -18 -7 -42 -17
-54 -23 -11 -6 -26 -7 -33 -3 -10 6 -44 -6 -183 -63 -45 -18 -59 -10 -26 17
l24 20 -40 -14 c-22 -8 -54 -14 -72 -15 -17 0 -35 -5 -39 -11 -3 -6 -29 -10
-58 -9 -95 4 -110 2 -96 -15 8 -9 9 -15 2 -15 -6 0 -14 4 -17 10 -4 6 -14 5
-28 -4 -12 -7 -44 -19 -72 -25 -109 -26 -127 -33 -147 -57 -23 -26 -49 -34
-28 -9 19 22 -5 20 -39 -5 -17 -12 -72 -27 -141 -39 -62 -11 -115 -23 -119
-27 -3 -4 8 -4 24 0 24 6 28 5 18 -5 -8 -7 -32 -12 -59 -10 -48 2 -109 -13
-134 -34 -17 -14 -69 -29 -88 -26 -7 1 -29 -8 -48 -20 -27 -16 -32 -24 -22
-30 10 -7 9 -9 -4 -9 -9 0 -25 -3 -35 -6 -15 -5 -15 -4 -3 5 31 22 -29 12 -68
-12 -23 -14 -56 -24 -87 -25 -27 -1 -71 -10 -98 -18 -30 -10 -61 -13 -86 -9
-52 9 -83 -8 -77 -40 2 -13 2 -33 -1 -43 -4 -18 -11 -20 -60 -15 -62 5 -118
-15 -128 -47 -8 -25 -60 -62 -82 -59 -19 2 -41 -4 -82 -24 -20 -10 -26 -8 -41
11 l-19 23 -3 -27 c-3 -24 -12 -29 -93 -55 -49 -15 -116 -33 -147 -40 -32 -7
-58 -15 -58 -19 0 -4 -20 -10 -45 -13 -25 -2 -54 -12 -65 -22 -10 -9 -23 -14
-29 -11 -11 7 -101 -12 -116 -25 -5 -5 -16 -9 -25 -9 -24 0 -428 -127 -445
-141 -16 -12 -119 -49 -136 -49 -28 0 -119 -32 -119 -42 0 -5 -4 -6 -10 -3
-12 7 -81 -11 -138 -36 -23 -11 -57 -22 -75 -25 -51 -9 -267 -80 -292 -95 -5
-4 -46 -17 -90 -29 -95 -26 -272 -85 -335 -112 -25 -11 -70 -28 -100 -38 -69
-23 -238 -87 -267 -102 -13 -6 -23 -17 -23 -24 0 -13 -52 -36 -86 -39 -11 0
-36 -11 -55 -23 -71 -46 -255 -126 -273 -119 -8 3 -18 1 -23 -4 -5 -5 -27 -12
-49 -14 -21 -3 -62 -12 -89 -20 -28 -8 -78 -17 -110 -21 -35 -3 -72 -14 -88
-26 -16 -11 -35 -17 -44 -14 -9 4 -35 -3 -60 -15 -31 -15 -57 -20 -93 -17 -28
1 -50 1 -50 -2 0 -7 -53 -26 -97 -35 -18 -4 -39 -16 -47 -27 l-15 -20 -29 21
c-30 21 -82 29 -82 12 0 -5 -18 -11 -41 -15 -22 -4 -58 -15 -79 -26 -20 -10
-40 -16 -44 -13 -3 4 -23 -10 -44 -30 -20 -20 -46 -37 -57 -37 -63 -3 -96 -8
-108 -19 -8 -6 -22 -9 -31 -5 -9 3 -28 -1 -41 -10 -15 -10 -50 -18 -83 -19
l-57 -2 -3 -2273 -2 -2272 3281 0 c3113 0 3283 1 3296 18 14 16 14 16 9 0 -5
-17 28 -18 544 -18 l550 0 0 1153 0 1152 -23 18 -22 18 22 -6 23 -6 0 2400 c0
1321 -3 2401 -7 2401 -5 -1 -27 -11 -49 -23z m-354 -305 c0 -4 -5 -13 -12 -20
-7 -7 -16 -12 -20 -12 -13 0 -9 28 5 33 19 8 27 8 27 -1z m-781 -221 c9 -6 10
-11 2 -15 -6 -4 -11 -3 -11 3 0 5 -8 12 -17 14 -13 3 -14 5 -3 6 8 0 21 -3 29
-8z m-86 -20 c4 -4 -11 -6 -34 -5 -23 1 -45 6 -50 11 -10 10 72 4 84 -6z m57
-1 c0 -5 -4 -10 -10 -10 -5 0 -10 5 -10 10 0 6 5 10 10 10 6 0 10 -4 10 -10z
m-211 -36 c-7 -9 -29 -13 -60 -12 -34 2 -44 5 -33 11 9 5 32 6 51 2 29 -5 35
-4 30 9 -4 10 -1 13 9 9 11 -4 12 -9 3 -19z m96 16 c-3 -5 -10 -10 -16 -10 -5
0 -9 5 -9 10 0 6 7 10 16 10 8 0 12 -4 9 -10z m-235 -34 c0 -2 -9 -6 -20 -9
-11 -3 -18 -1 -14 4 5 9 34 13 34 5z m73 -13 c-7 -2 -21 -2 -30 0 -10 3 -4 5
12 5 17 0 24 -2 18 -5z m82 -23 c-3 -5 -11 -10 -16 -10 -6 0 -7 5 -4 10 3 6
11 10 16 10 6 0 7 -4 4 -10z m-45 -14 c0 -3 -4 -8 -10 -11 -5 -3 -10 -1 -10 4
0 6 5 11 10 11 6 0 10 -2 10 -4z m-273 -12 c-3 -3 -12 -4 -19 -1 -8 3 -5 6 6
6 11 1 17 -2 13 -5z m23 -25 c0 -11 -47 -12 -53 -1 -3 4 8 7 24 8 16 1 29 -3
29 -7z m-214 -34 c-11 -8 -14 -15 -8 -15 7 0 12 -5 12 -11 0 -8 -5 -7 -16 2
-14 12 -14 14 2 26 10 7 20 13 23 13 3 0 -3 -7 -13 -15z m44 -5 c0 -5 -4 -10
-10 -10 -5 0 -10 5 -10 10 0 6 5 10 10 10 6 0 10 -4 10 -10z m53 -7 c-7 -2
-19 -2 -25 0 -7 3 -2 5 12 5 14 0 19 -2 13 -5z m-433 -78 c0 -8 -7 -15 -16
-15 -14 0 -14 3 -4 15 7 8 14 15 16 15 2 0 4 -7 4 -15z m185 -205 c3 -6 -1 -7
-9 -4 -18 7 -21 14 -7 14 6 0 13 -4 16 -10z m-1597 -355 c-3 -3 -9 2 -12 12
-6 14 -5 15 5 6 7 -7 10 -15 7 -18z m-781 -331 c-3 -3 -12 -4 -19 -1 -8 3 -5
6 6 6 11 1 17 -2 13 -5z m-77 -24 c0 -5 -5 -10 -11 -10 -5 0 -7 5 -4 10 3 6 8
10 11 10 2 0 4 -4 4 -10z m3840 -1210 c0 -5 -4 -10 -10 -10 -5 0 -10 5 -10 10
0 6 5 10 10 10 6 0 10 -4 10 -10z m483 -460 c-3 -11 -7 -20 -9 -20 -2 0 -4 9
-4 20 0 11 4 20 9 20 5 0 7 -9 4 -20z m-1386 -82 c-3 -8 -6 -5 -6 6 -1 11 2
17 5 13 3 -3 4 -12 1 -19z m238 -18 c3 -5 1 -10 -4 -10 -6 0 -11 5 -11 10 0 6
2 10 4 10 3 0 8 -4 11 -10z m1125 -391 c0 -5 -7 -6 -15 -3 -8 4 -15 13 -15 21
0 13 3 13 15 3 8 -7 15 -16 15 -21z m-647 -4 c-3 -9 -8 -14 -10 -11 -3 3 -2 9
2 15 9 16 15 13 8 -4z m177 -49 c0 -2 -7 -7 -16 -10 -8 -3 -12 -2 -9 4 6 10
25 14 25 6z m117 -22 c-3 -3 -12 -4 -19 -1 -8 3 -5 6 6 6 11 1 17 -2 13 -5z
m-1457 -49 c-10 -12 -10 -18 1 -32 12 -17 12 -17 -6 -1 -15 14 -16 20 -5 32 7
9 15 16 17 16 3 0 0 -7 -7 -15z m707 -37 c-3 -8 -6 -5 -6 6 -1 11 2 17 5 13 3
-3 4 -12 1 -19z m-660 -4 c-3 -3 -12 -4 -19 -1 -8 3 -5 6 6 6 11 1 17 -2 13
-5z m1425 -66 c-7 -7 -12 -8 -12 -2 0 14 12 26 19 19 2 -3 -1 -11 -7 -17z
m-5622 -92 c0 -2 -13 -6 -29 -8 -17 -2 -28 -1 -25 4 5 8 54 12 54 4z m3290
-150 c0 -3 -4 -8 -10 -11 -5 -3 -10 -1 -10 4 0 6 5 11 10 11 6 0 10 -2 10 -4z
m-163 -72 c-3 -3 -12 -4 -19 -1 -8 3 -5 6 6 6 11 1 17 -2 13 -5z m750 -56 c-3
-8 -6 -5 -6 6 -1 11 2 17 5 13 3 -3 4 -12 1 -19z m-4940 -20 c-3 -8 -6 -5 -6
6 -1 11 2 17 5 13 3 -3 4 -12 1 -19z m7009 -20 c-18 -26 -22 -17 -5 14 6 11
13 17 16 15 3 -3 -2 -16 -11 -29z m-3269 -14 c-3 -3 -12 -4 -19 -1 -8 3 -5 6
6 6 11 1 17 -2 13 -5z m2423 -27 c0 -2 -10 -12 -22 -23 l-23 -19 19 23 c18 21
26 27 26 19z m-6530 -41 c0 -3 -4 -8 -10 -11 -5 -3 -10 -1 -10 4 0 6 5 11 10
11 6 0 10 -2 10 -4z m5200 -56 c0 -5 -4 -10 -10 -10 -5 0 -10 5 -10 10 0 6 5
10 10 10 6 0 10 -4 10 -10z m-90 -40 c0 -5 -2 -10 -4 -10 -3 0 -8 5 -11 10 -3
6 -1 10 4 10 6 0 11 -4 11 -10z m-1360 -10 c0 -5 -2 -10 -4 -10 -3 0 -8 5 -11
10 -3 6 -1 10 4 10 6 0 11 -4 11 -10z m643 -97 c-7 -2 -19 -2 -25 0 -7 3 -2 5
12 5 14 0 19 -2 13 -5z m-153 -8 c0 -2 -10 -9 -22 -15 -22 -11 -22 -10 -4 4
21 17 26 19 26 11z m1578 -46 c-20 -13 -28 -11 -22 5 3 8 12 12 21 9 12 -5 12
-7 1 -14z m-1347 -11 c23 -26 24 -46 2 -70 -36 -40 -101 1 -81 52 17 45 50 53
79 18z m1380 -31 c-10 -9 -11 -8 -5 6 3 10 9 15 12 12 3 -3 0 -11 -7 -18z
m-231 -1 c0 -2 -7 -6 -15 -10 -8 -3 -15 -1 -15 4 0 6 7 10 15 10 8 0 15 -2 15
-4z m-3936 -35 c-2 -3 -12 3 -22 13 -16 17 -16 18 5 5 12 -7 20 -15 17 -18z
m61 19 c-3 -5 -11 -10 -16 -10 -6 0 -7 5 -4 10 3 6 11 10 16 10 6 0 7 -4 4
-10z m65 -15 c0 -9 6 -12 15 -9 9 4 15 1 15 -7 0 -18 128 -279 148 -301 14
-16 14 -18 -2 -18 -10 0 -14 -5 -10 -12 4 -7 3 -8 -4 -4 -6 4 -8 14 -5 23 5
12 3 14 -7 8 -9 -5 -11 -4 -6 4 6 10 -102 241 -125 265 -4 5 -2 -14 6 -43 9
-34 10 -51 3 -49 -6 2 -19 35 -29 73 -21 80 -23 99 -9 90 6 -3 10 -13 10 -20z
m100 -9 c0 -2 -7 -7 -16 -10 -8 -3 -12 -2 -9 4 6 10 25 14 25 6z m3000 0 c0
-2 -7 -6 -15 -10 -8 -3 -15 -1 -15 4 0 6 7 10 15 10 8 0 15 -2 15 -4z m1878
-58 c-2 -6 -10 -13 -16 -14 -7 -1 -8 0 -2 3 5 2 8 9 4 14 -3 5 0 9 6 9 7 0 10
-5 8 -12z m32 2 c0 -5 -2 -10 -4 -10 -3 0 -8 5 -11 10 -3 6 -1 10 4 10 6 0 11
-4 11 -10z m-300 -41 c0 -5 -4 -9 -10 -9 -5 0 -10 7 -10 16 0 8 5 12 10 9 6
-3 10 -10 10 -16z m497 -4 c0 -8 -4 -15 -7 -15 -4 0 -13 7 -20 15 -10 12 -9
15 7 15 11 0 20 -7 20 -15z m-2110 -37 c-3 -8 -6 -5 -6 6 -1 11 2 17 5 13 3
-3 4 -12 1 -19z m-3047 -41 c0 -18 -2 -19 -10 -7 -13 20 -13 43 0 35 6 -3 10
-16 10 -28z m4265 -7 c3 -6 -1 -7 -9 -4 -18 7 -21 14 -7 14 6 0 13 -4 16 -10z
m-4194 -77 c10 -12 5 -11 -18 6 -18 12 -33 24 -33 27 0 9 37 -15 51 -33z m94
-132 c9 -23 1 -20 -24 11 -23 28 -23 29 -3 17 12 -8 24 -20 27 -28z m3022 -53
c-3 -8 -6 -5 -6 6 -1 11 2 17 5 13 3 -3 4 -12 1 -19z m-2977 -19 c0 -11 -4
-18 -10 -14 -5 3 -7 12 -3 20 7 21 13 19 13 -6z m65 -57 c-6 -7 -45 9 -45 18
0 4 11 3 24 -3 14 -7 23 -13 21 -15z m5415 -132 c0 -5 -4 -10 -10 -10 -5 0
-10 5 -10 10 0 6 5 10 10 10 6 0 10 -4 10 -10z m-850 -22 c0 -19 -2 -20 -10
-8 -13 19 -13 30 0 30 6 0 10 -10 10 -22z m-4750 -8 c-12 -8 -11 -10 8 -10 12
0 22 -4 22 -10 0 -13 -37 -13 -45 0 -3 5 -12 7 -20 3 -8 -3 -15 -2 -15 1 0 7
38 24 55 25 6 0 3 -4 -5 -9z m4877 -46 c-3 -3 -12 -4 -19 -1 -8 3 -5 6 6 6 11
1 17 -2 13 -5z m-4658 -37 c0 -21 -1 -21 -9 -2 -12 28 -12 37 0 30 6 -3 10
-16 9 -28z m4351 19 c0 -2 -7 -7 -16 -10 -8 -3 -12 -2 -9 4 6 10 25 14 25 6z
m1060 0 c0 -3 -4 -8 -10 -11 -5 -3 -10 -1 -10 4 0 6 5 11 10 11 6 0 10 -2 10
-4z m-60 -31 c0 -8 -3 -16 -7 -18 -5 -3 -8 5 -8 18 0 13 3 21 8 18 4 -2 7 -10
7 -18z m-1183 -50 c-4 -8 -12 -15 -19 -14 -10 0 -10 2 0 6 6 2 12 12 12 21 0
8 3 13 6 9 4 -3 4 -13 1 -22z m-977 5 c0 -5 -2 -10 -4 -10 -3 0 -8 5 -11 10
-3 6 -1 10 4 10 6 0 11 -4 11 -10z m734 -62 c-3 -4 -9 -8 -15 -8 -5 0 -9 4 -9
8 0 5 7 9 15 9 8 0 12 -4 9 -9z m1242 -4 c19 -15 19 -15 -1 -6 -11 5 -27 12
-35 15 -13 5 -13 6 1 6 8 1 24 -6 35 -15z m-1081 -14 c-3 -5 -14 -10 -23 -9
-14 0 -13 2 3 9 27 11 27 11 20 0z m-820 -130 c-25 -11 -58 -12 -52 -2 3 4 20
8 39 9 26 1 29 0 13 -7z m82 4 c-3 -3 -12 -4 -19 -1 -8 3 -5 6 6 6 11 1 17 -2
13 -5z m-52 -14 c-3 -5 -12 -10 -18 -10 -7 0 -6 4 3 10 19 12 23 12 15 0z
m2145 -4 c0 -3 -4 -8 -10 -11 -5 -3 -10 -1 -10 4 0 6 5 11 10 11 6 0 10 -2 10
-4z m-50 -36 c0 -5 -4 -10 -10 -10 -5 0 -10 5 -10 10 0 6 5 10 10 10 6 0 10
-4 10 -10z m-26 -35 c-4 -8 -11 -15 -16 -15 -6 0 -5 6 2 15 7 8 14 15 16 15 2
0 1 -7 -2 -15z m-3554 1 c0 -2 -9 -6 -20 -9 -11 -3 -18 -1 -14 4 5 9 34 13 34
5z m665 -16 c3 -6 -1 -7 -9 -4 -18 7 -21 14 -7 14 6 0 13 -4 16 -10z m2455
-20 c13 -8 12 -10 -2 -10 -10 0 -21 0 -25 -1 -4 0 -9 4 -11 10 -5 14 18 14 38
1z m-2220 -26 c0 -8 -4 -12 -10 -9 -5 3 -10 10 -10 16 0 5 5 9 10 9 6 0 10 -7
10 -16z m754 -59 c-10 -8 -26 -14 -34 -14 -9 0 -4 6 10 14 33 19 49 19 24 0z
m-5539 -5 c3 -5 -1 -10 -10 -10 -9 0 -13 5 -10 10 3 6 8 10 10 10 2 0 7 -4 10
-10z m130 -20 c-3 -5 -11 -10 -16 -10 -6 0 -7 5 -4 10 3 6 11 10 16 10 6 0 7
-4 4 -10z m5702 -32 c-3 -8 -6 -5 -6 6 -1 11 2 17 5 13 3 -3 4 -12 1 -19z
m-137 8 c0 -3 -4 -8 -10 -11 -5 -3 -10 -1 -10 4 0 6 5 11 10 11 6 0 10 -2 10
-4z m57 -48 c-3 -7 -5 -2 -5 12 0 14 2 19 5 13 2 -7 2 -19 0 -25z m-5381 -74
c-3 -9 -6 -21 -6 -27 0 -7 -5 -4 -11 6 -11 18 -5 37 13 37 5 0 7 -7 4 -16z
m1374 6 c0 -5 -4 -10 -10 -10 -5 0 -10 5 -10 10 0 6 5 10 10 10 6 0 10 -4 10
-10z m3610 -20 c6 -11 8 -20 6 -20 -3 0 -10 9 -16 20 -6 11 -8 20 -6 20 3 0
10 -9 16 -20z m-537 -27 c-7 -2 -19 -2 -25 0 -7 3 -2 5 12 5 14 0 19 -2 13 -5z
m-4483 -27 c0 -3 -4 -8 -10 -11 -5 -3 -10 -1 -10 4 0 6 5 11 10 11 6 0 10 -2
10 -4z m370 -116 c0 -5 -5 -10 -11 -10 -5 0 -7 5 -4 10 3 6 8 10 11 10 2 0 4
-4 4 -10z m-50 -40 c0 -5 -2 -10 -4 -10 -3 0 -8 5 -11 10 -3 6 -1 10 4 10 6 0
11 -4 11 -10z m5290 -42 c0 -18 -2 -20 -9 -8 -6 8 -7 18 -5 22 9 14 14 9 14
-14z m945 -118 c3 -5 -1 -10 -9 -10 -8 0 -18 5 -21 10 -3 6 1 10 9 10 8 0 18
-4 21 -10z m55 -5 c16 -9 19 -14 9 -15 -8 0 -24 7 -35 15 -24 18 -7 19 26 0z
m-440 -258 c0 -8 -7 -14 -15 -14 -25 0 -17 17 13 26 1 1 2 -5 2 -12z m-50 -26
c0 -6 -4 -13 -10 -16 -5 -3 -10 1 -10 9 0 9 5 16 10 16 6 0 10 -4 10 -9z"/>
<path d="M7300 6910 c-13 -8 -13 -10 2 -10 9 0 20 5 23 10 8 13 -5 13 -25 0z"/>
<path d="M7232 6893 c-6 -2 -9 -9 -6 -15 4 -6 -2 -8 -16 -3 -16 5 -20 4 -15
-5 5 -8 2 -10 -11 -6 -11 3 -26 1 -34 -5 -12 -8 -11 -9 5 -7 11 1 26 -1 33 -5
7 -5 12 -3 12 3 0 6 4 8 10 5 5 -3 20 1 32 9 15 11 18 16 8 16 -13 0 -13 2 0
10 16 10 4 12 -18 3z"/>
<path d="M7090 6835 c-14 -8 -19 -14 -10 -14 8 0 24 6 34 14 25 19 9 19 -24 0z"/>
<path d="M6710 6679 c0 -5 5 -7 10 -4 6 3 10 8 10 11 0 2 -4 4 -10 4 -5 0 -10
-5 -10 -11z"/>
<path d="M6758 6673 c7 -3 16 -2 19 1 4 3 -2 6 -13 5 -11 0 -14 -3 -6 -6z"/>
<path d="M6600 6630 c0 -5 5 -10 11 -10 5 0 7 5 4 10 -3 6 -8 10 -11 10 -2 0
-4 -4 -4 -10z"/>
</g>
</svg>
