<?xml version="1.0" standalone="no"?>
<!DOCTYPE svg PUBLIC "-//W3C//DTD SVG 20010904//EN"
 "http://www.w3.org/TR/2001/REC-SVG-20010904/DTD/svg10.dtd">
<svg version="1.0" xmlns="http://www.w3.org/2000/svg"
 width="165.000000pt" height="177.000000pt" viewBox="0 0 165.000000 177.000000"
 preserveAspectRatio="xMidYMid meet">
<metadata>
Created by potrace 1.10, written by Peter Selinger 2001-2011
</metadata>
<g transform="translate(0.000000,177.000000) scale(0.100000,-0.100000)"
fill="#9343dc" stroke="none">
<path d="M872 1748 c-7 -7 -12 -18 -12 -24 0 -8 -11 -12 -27 -11 -25 2 -28 -1
-28 -28 0 -19 -6 -33 -18 -37 -23 -10 -32 -35 -18 -52 6 -7 34 -16 61 -20 33
-4 50 -11 50 -21 0 -20 41 -31 54 -14 6 8 34 20 61 27 49 12 95 49 95 77 0 14
-53 31 -68 21 -5 -3 -7 7 -4 23 5 36 -19 57 -47 42 -17 -9 -22 -8 -31 9 -12
22 -49 27 -68 8z m54 -23 c3 -14 4 -47 0 -73 l-5 -47 17 49 c20 55 44 78 63
59 14 -14 1 -40 -49 -94 l-35 -40 -23 53 c-26 60 -29 89 -12 106 19 19 37 14
44 -13z m-60 -62 c31 -74 30 -76 -29 -69 -59 8 -62 10 -54 31 8 19 37 19 63 0
37 -28 38 -14 1 20 -37 34 -41 55 -12 55 8 0 22 -17 31 -37z m199 -24 c12 -18
-23 -45 -75 -58 -28 -7 -53 -11 -56 -9 -6 7 37 45 71 62 35 19 51 20 60 5z
m-150 -87 c-3 -3 -11 0 -18 7 -9 10 -8 11 6 5 10 -3 15 -9 12 -12z"/>
<path d="M620 1679 c-82 -49 -140 -140 -140 -218 0 -15 -9 -36 -20 -46 -20
-18 -20 -17 -20 9 0 34 -23 43 -55 22 -31 -21 -32 -21 -39 10 -8 32 -45 30
-62 -4 -10 -20 -13 -21 -24 -7 -17 20 -33 19 -54 -4 -11 -12 -15 -27 -11 -43
5 -20 2 -26 -14 -31 -55 -14 -1 -67 69 -67 l45 0 -30 -19 c-16 -10 -41 -22
-54 -26 -22 -7 -23 -5 -17 21 6 24 5 26 -8 15 -20 -17 -20 -35 0 -51 13 -11
23 -10 59 8 41 20 85 20 85 0 0 -5 -6 -21 -14 -36 -8 -15 -17 -49 -21 -76 -6
-39 -5 -48 6 -44 8 2 19 24 25 49 25 94 28 98 71 88 91 -21 171 -4 223 49 l35
36 -55 13 c-30 8 -76 11 -102 9 -58 -6 -124 -39 -133 -66 -3 -11 -11 -20 -18
-20 -8 0 -8 3 1 12 7 7 12 19 12 28 0 13 44 51 46 39 0 -2 25 17 55 44 29 26
76 59 103 72 l49 25 63 -59 c122 -115 291 -166 418 -128 l39 12 -68 64 c-86
80 -183 128 -275 136 -101 9 -84 15 42 15 146 0 221 -21 308 -87 80 -60 141
-137 192 -243 50 -102 46 -96 59 -83 12 12 0 42 -35 83 -11 14 3 3 31 -24 35
-33 60 -49 78 -48 36 0 47 19 30 53 -14 25 -13 27 9 33 33 8 39 33 15 57 -16
16 -18 23 -9 35 7 7 9 25 6 39 -5 19 -13 25 -35 25 -20 0 -30 6 -34 20 -11 44
-76 12 -78 -38 0 -15 -4 -36 -8 -46 -7 -19 -8 -19 -15 0 -30 73 -28 101 6 83
16 -9 19 -8 16 3 -3 7 -16 14 -30 16 -34 4 -42 -19 -23 -65 17 -40 19 -63 7
-63 -5 0 -9 6 -9 13 0 39 -97 145 -158 174 -23 11 -24 13 -5 7 59 -16 117 -15
170 4 l54 19 -40 27 c-74 49 -142 57 -233 30 -43 -12 -63 -13 -104 -4 -34 7
-54 7 -61 0 -14 -14 -37 -12 -56 5 -13 12 -30 13 -90 6 -91 -10 -184 -37 -200
-56 -7 -8 -17 -15 -22 -15 -5 0 4 13 20 30 31 30 56 93 65 163 3 20 5 37 4 37
-1 0 -18 -10 -37 -21z m-15 -86 c-9 -31 -31 -68 -55 -94 -40 -44 -40 -44 -34
-14 9 42 34 88 69 128 17 19 31 34 32 33 2 -2 -4 -25 -12 -53z m685 -98 c23
-12 22 -13 -32 -20 -60 -8 -167 11 -151 25 22 22 137 18 183 -5z m-569 -21
c133 -12 219 -48 316 -132 l42 -37 -78 2 c-86 2 -164 26 -229 71 -38 26 -149
122 -126 109 7 -4 40 -9 75 -13z m-385 -87 c-8 -76 -12 -82 -44 -61 -73 46
-103 97 -65 111 20 8 59 -38 68 -79 4 -15 11 -31 17 -35 8 -4 9 0 4 13 -24 61
-29 103 -17 118 11 13 17 14 29 4 11 -10 13 -26 8 -71z m87 41 c2 -7 1 -22 -3
-33 -11 -26 -69 -89 -76 -82 -10 9 17 81 39 105 23 25 33 27 40 10z m3 -66
c-17 -16 -18 -16 -5 5 7 12 15 20 18 17 3 -2 -3 -12 -13 -22z m1004 -10 c0
-10 -14 -31 -30 -47 l-30 -29 11 34 c6 19 12 41 15 48 5 19 34 14 34 -6z
m-1185 -13 c20 -12 35 -23 33 -24 -2 -1 -23 0 -48 4 -32 4 -46 11 -48 24 -5
23 19 22 63 -4z m1254 -13 c18 -21 -16 -52 -73 -65 -27 -7 -50 -10 -52 -8 -7
7 85 87 100 87 7 0 19 -6 25 -14z m-904 -16 l30 -1 -28 -24 c-44 -39 -137 -56
-205 -36 l-24 6 21 19 c25 23 104 44 146 40 17 -1 44 -3 60 -4z m-245 -19 c0
-6 -4 -13 -10 -16 -5 -3 -10 1 -10 9 0 9 5 16 10 16 6 0 10 -4 10 -9z m996
-68 c-11 -11 -19 6 -11 24 8 17 8 17 12 0 3 -10 2 -21 -1 -24z m172 4 c5 -22
-33 -25 -102 -7 l-58 15 58 10 c65 12 97 6 102 -18z m-69 -45 c13 -10 28 -28
32 -40 7 -18 5 -22 -11 -22 -21 0 -85 51 -100 81 -9 16 -7 17 23 8 17 -5 43
-17 56 -27z"/>
<path d="M831 1047 c-20 -25 -41 -99 -41 -148 0 -41 -4 -51 -25 -65 -14 -9
-32 -13 -42 -9 -16 6 -14 8 9 21 32 17 45 49 28 69 -20 24 -44 18 -76 -17
l-29 -33 -3 33 c-5 47 -35 40 -43 -11 -10 -64 -29 -70 -29 -9 0 40 -4 52 -15
52 -11 0 -15 -11 -15 -38 0 -36 -14 -62 -33 -62 -5 0 -6 19 -3 44 6 40 5 44
-18 50 -32 8 -51 0 -71 -30 -20 -32 -34 -31 -32 2 4 49 -30 38 -71 -22 -13
-19 -12 -14 2 34 6 16 3 22 -9 22 -20 0 -28 -21 -29 -76 0 -70 19 -75 45 -13
21 48 24 51 29 29 4 -16 14 -26 28 -28 12 -2 22 -10 22 -17 0 -25 34 -36 58
-19 12 8 22 11 22 6 0 -18 29 -21 45 -5 15 14 17 14 29 -3 13 -17 16 -17 44
14 34 36 58 41 67 13 9 -29 57 -42 90 -25 23 12 30 11 48 -1 25 -16 61 -4 81
27 15 24 0 34 -22 15 -17 -16 -52 -24 -52 -12 0 3 13 29 29 58 33 57 46 114
36 146 -7 24 -37 28 -54 8z m10 -119 l-21 -43 4 46 c3 25 11 59 18 75 l12 29
4 -32 c2 -19 -6 -50 -17 -75z m-362 -60 c-12 -42 -26 -56 -35 -35 -6 18 20 67
36 67 5 0 5 -13 -1 -32z m261 23 c0 -11 -29 -35 -35 -29 -10 9 7 38 21 38 8 0
14 -4 14 -9z"/>
<path d="M1225 1036 c-24 -36 -35 -85 -35 -153 0 -52 3 -64 22 -77 15 -11 26
-12 40 -5 13 7 29 7 50 0 27 -10 33 -8 58 19 34 36 38 37 42 8 2 -19 9 -23 36
-21 l33 1 -41 -38 c-33 -30 -41 -44 -38 -67 2 -20 9 -29 25 -31 26 -4 57 40
67 92 4 21 16 38 36 49 17 10 30 25 30 33 0 20 -10 17 -41 -12 l-27 -26 13 38
c20 56 18 71 -9 78 -31 8 -54 -1 -67 -25 -13 -26 -26 -24 -54 9 -23 26 -25 26
-52 12 -16 -9 -33 -30 -39 -49 -13 -39 -41 -60 -50 -37 -3 8 6 31 19 53 51 78
60 173 17 173 -11 0 -27 -11 -35 -24z m15 -106 l-20 -45 5 54 c4 30 12 64 18
75 23 39 20 -35 -3 -84z m95 -40 c-4 -6 -1 -18 6 -26 10 -12 9 -18 -3 -31 -15
-14 -17 -13 -27 6 -13 23 0 61 20 61 6 0 7 -5 4 -10z m137 -20 c-5 -37 -29
-60 -38 -36 -6 16 20 66 34 66 5 0 7 -13 4 -30z m-30 -146 c-12 -23 -22 -33
-26 -25 -7 11 32 76 41 68 2 -3 -4 -22 -15 -43z"/>
<path d="M1015 1031 c-45 -11 -77 -31 -72 -44 5 -13 8 -12 76 11 31 11 53 13
79 6 58 -14 53 -60 -8 -73 -39 -8 -51 -28 -19 -33 12 -2 27 -11 33 -21 15 -24
-15 -47 -61 -47 -38 0 -40 8 -19 88 13 47 13 54 -1 59 -20 8 -30 -10 -42 -82
-15 -85 -14 -115 3 -115 8 0 18 5 21 10 3 6 22 10 41 10 80 0 132 63 83 101
-23 18 -23 19 -3 19 47 0 70 62 35 94 -21 19 -102 29 -146 17z"/>
<path d="M114 1007 c-22 -19 -26 -29 -20 -51 8 -32 31 -30 31 3 0 25 20 41 53
41 18 0 21 -4 17 -22 -24 -101 -31 -169 -20 -178 20 -17 31 9 45 107 l13 92
51 3 c85 5 52 23 -48 26 -87 2 -96 1 -122 -21z"/>
<path d="M265 780 c-4 -6 0 -21 9 -33 46 -65 46 -68 -6 -19 -58 53 -86 63
-108 37 -10 -12 -9 -20 3 -39 17 -26 13 -36 -14 -36 -33 0 -31 -61 3 -73 10
-3 9 -9 -4 -24 -16 -18 -16 -21 -2 -42 12 -16 24 -22 40 -18 17 3 24 -1 26
-17 7 -52 73 -19 80 40 6 51 -9 52 -19 2 -6 -28 -15 -44 -26 -46 -28 -6 -20
29 17 72 l34 39 14 -29 c9 -16 18 -42 22 -58 7 -27 5 -28 -19 -22 -29 7 -34
-10 -5 -19 41 -13 53 26 26 90 -13 29 -12 34 0 39 9 4 12 2 8 -5 -14 -24 100
-158 156 -183 8 -3 2 -3 -15 1 -47 11 -114 4 -159 -15 l-41 -18 40 -27 c62
-43 128 -53 205 -32 36 10 74 17 85 16 11 -1 49 -3 85 -5 36 -1 73 -6 83 -11
45 -19 275 25 285 54 2 6 11 11 19 11 10 0 5 -10 -16 -29 -17 -16 -36 -42 -42
-57 -13 -36 -31 -126 -25 -131 10 -10 87 40 111 71 30 40 65 125 65 160 0 12
8 31 19 40 17 16 19 15 24 -14 7 -34 22 -38 55 -14 21 14 23 14 34 -10 6 -15
15 -26 20 -26 20 0 48 22 48 37 0 12 3 13 14 3 36 -29 92 12 68 50 -11 17 -10
20 7 20 11 0 23 5 26 10 10 16 -5 50 -21 50 -12 0 -12 4 2 26 16 23 16 26 1
42 -16 15 -20 14 -62 -6 -36 -18 -49 -20 -64 -10 -24 14 -51 4 -51 -20 0 -19
-33 -56 -42 -47 -2 3 -25 -15 -51 -38 -25 -24 -72 -58 -104 -74 l-57 -31 -64
59 c-109 102 -226 146 -365 136 -43 -3 -82 -8 -85 -12 -13 -13 125 -130 189
-162 74 -36 117 -46 177 -44 23 0 42 -3 42 -8 0 -12 -172 -12 -245 0 -156 27
-285 143 -376 336 -34 73 -42 82 -54 63z m-4 -62 c27 -30 35 -44 25 -46 -29
-6 -116 54 -116 80 0 4 12 8 26 8 18 0 38 -13 65 -42z m-25 -54 c43 -12 58
-13 69 -4 12 10 16 9 21 -4 8 -21 -4 -35 -15 -17 -6 9 -18 1 -46 -32 -47 -56
-76 -71 -101 -52 -18 13 -18 14 0 34 10 11 40 27 65 35 l46 15 -61 -6 c-63 -5
-82 3 -70 32 7 19 25 19 92 -1z m1234 -48 c0 -23 -27 -37 -67 -34 l-38 3 40
22 c47 26 65 28 65 9z m-140 -16 c0 -5 -4 -10 -10 -10 -5 0 -10 5 -10 10 0 6
5 10 10 10 6 0 10 -4 10 -10z m-575 -36 c68 -17 122 -46 185 -99 24 -20 52
-43 64 -50 11 -8 16 -18 12 -22 -5 -5 -11 -2 -13 5 -3 7 -25 12 -61 12 -109 0
-232 51 -321 131 l-44 39 60 0 c32 0 86 -7 118 -16z m554 -25 c-12 -54 -25
-76 -49 -89 -26 -14 -37 9 -20 42 10 19 69 88 76 88 1 0 -2 -19 -7 -41z m112
-21 c32 -29 38 -62 13 -72 -23 -9 -39 7 -64 65 -26 61 -36 60 -15 -2 17 -48
13 -89 -10 -89 -23 0 -27 18 -20 91 l7 69 30 -18 c17 -9 43 -29 59 -44z m52
35 c12 -7 8 -23 -7 -29 -8 -3 -32 6 -53 21 l-38 27 45 -7 c25 -4 48 -9 53 -12z
m-229 -28 c-9 -14 -18 -25 -21 -25 -5 0 5 18 20 38 17 22 18 13 1 -13z m-109
-151 c-20 -57 -80 -142 -92 -130 -14 14 86 194 109 196 3 0 -4 -30 -17 -66z
m-611 25 c52 -14 30 -29 -43 -29 -67 0 -143 20 -115 31 29 11 114 10 158 -2z"/>
<path d="M1324 723 l-19 -68 -87 4 c-74 3 -94 0 -132 -18 -24 -12 -51 -33 -60
-46 -16 -24 -15 -24 22 -34 20 -6 67 -11 103 -11 52 0 73 5 99 23 51 34 47 48
-6 21 -35 -18 -64 -24 -108 -24 -83 0 -97 11 -55 41 38 27 138 38 187 21 39
-13 65 8 86 72 19 60 20 86 3 86 -8 0 -21 -28 -33 -67z"/>
<path d="M710 335 c-14 -8 -47 -21 -73 -30 -77 -27 -91 -89 -20 -87 25 0 28
-3 28 -31 0 -30 2 -32 37 -31 28 1 38 -3 41 -17 3 -13 14 -19 32 -19 20 0 29
7 38 29 9 25 13 27 29 17 22 -13 40 6 36 39 -2 11 8 29 22 41 20 18 22 24 12
37 -7 8 -35 18 -62 22 -36 5 -49 12 -53 26 -6 22 -31 23 -67 4z m50 -5 c0 -5
-2 -10 -4 -10 -3 0 -8 5 -11 10 -3 6 -1 10 4 10 6 0 11 -4 11 -10z m-65 -50
c-32 -33 -76 -52 -96 -40 -29 19 43 66 105 69 17 1 16 -3 -9 -29z m74 -39 c23
-68 21 -101 -9 -101 -28 0 -39 27 -28 73 5 23 7 51 4 63 -3 11 -3 24 1 28 8 8
7 11 32 -63z m89 43 c27 -8 28 -20 2 -34 -16 -9 -27 -6 -57 15 l-38 25 35 0
c19 0 45 -3 58 -6z m-137 -51 c-14 -53 -34 -78 -55 -70 -13 5 -15 13 -11 29 7
23 66 91 72 84 3 -2 0 -21 -6 -43z m119 -34 c0 -38 -34 -11 -58 44 l-12 28 35
-27 c19 -14 35 -35 35 -45z"/>
</g>
</svg>
